<svg xmlns="http://www.w3.org/2000/svg" viewBox="0 0 820 180" role="img" aria-label="FC Help">
  <defs>
    <linearGradient id="metal" x1="0" y1="0" x2="0" y2="1">
      <stop offset="0" stop-color="#ffffff"/>
      <stop offset=".55" stop-color="#f0f0f0"/>
      <stop offset="1" stop-color="#bfc2c6"/>
    </linearGradient>
    <linearGradient id="green" x1="0" y1="0" x2="1" y2="1">
      <stop offset="0" stop-color="#00ff6a"/>
      <stop offset="1" stop-color="#00c94e"/>
    </linearGradient>
    <filter id="shadow" x="-20%" y="-20%" width="140%" height="140%">
      <feDropShadow dx="0" dy="3" stdDeviation="3" flood-color="#000" flood-opacity=".8"/>
    </filter>
  </defs>
  <g filter="url(#shadow)">
    <path d="M70 15 130 40v54c0 34-23 55-60 72C33 149 10 128 10 94V40Z" fill="none" stroke="url(#metal)" stroke-width="10"/>
    <path d="M70 15 130 40v54c0 10-2 19-6 27" fill="none" stroke="url(#green)" stroke-width="10"/>
    <circle cx="70" cy="79" r="38" fill="#0a0a0a" stroke="#fff" stroke-width="6"/>
    <polygon points="70,60 83,69 78,84 62,84 57,69" fill="#fff"/>
    <path d="M70 41 58 57 42 56 51 41ZM98 55 83 57 78 42 94 45ZM101 87 87 84 82 99 95 108ZM58 99 53 85 39 89 45 105Z" fill="#fff"/>
    <path d="M43 121c18-2 37-8 53-25 7-8 17-8 23-3-15 17-21 31-17 47-24 5-46-1-59-19Z" fill="#090b0c" stroke="#fff" stroke-width="6"/>
    <path d="M138 69l14-12M142 82h18M138 96l14 11" stroke="url(#green)" stroke-width="8" stroke-linecap="round"/>
  </g>
  <g transform="skewX(-12)" filter="url(#shadow)" font-family="Arial Black,Arial,sans-serif" font-weight="900">
    <text x="180" y="122" font-size="92" fill="url(#metal)" letter-spacing="-6">FC</text>
    <text x="350" y="122" font-size="92" fill="url(#green)" letter-spacing="-7">H</text>
    <text x="416" y="122" font-size="92" fill="url(#metal)" letter-spacing="-7">elp</text>
  </g>
</svg>